# xmcd
#
# Track frame offsets: 
#        150
#        18486
#        37076
#        55521
#        74876
#        97483
#        117812
#        136663
#        154932
#        175296
#
# Disc length: 2590 seconds
#
# Revision: 1
# Processed by: cddbd v1.5.1PL0 Copyright (c) Steve Scherf et al.
# Submitted via: ExactAudioCopy v0.95a5
#
DISCID=8f0a1c0a
DTITLE=村E - 狂悲狂喜
DYEAR=1996
DGENRE=
TTITLE0=奇遇
TTITLE1=狂悲狂喜
TTITLE2=和爱过的人说我的伤心
TTITLE3=站在世界的屋顶
TTITLE4=身不由己
TTITLE5=一往情深
TTITLE6=不可歌
TTITLE7=情愿孤单
TTITLE8=走头无路
TTITLE9=你习不习惯他的心房
EXTD=
EXTT0=
EXTT1=
EXTT2=
EXTT3=
EXTT4=
EXTT5=
EXTT6=
EXTT7=
EXTT8=
EXTT9=
PLAYORDER=
